Coordinates
version=1
nRows=13
nColumns=36
inDegrees=yes

Units are S.I. units (second, meters, Newtons, ...)
If the header above contains a line with 'inDegrees', this indicates whether rotational values are in degrees (yes) or radians (no).

endheader
time	pelvis_tilt	pelvis_list	pelvis_rotation	pelvis_tx	pelvis_ty	pelvis_tz	hip_flexion_r	hip_adduction_r	hip_rotation_r	knee_angle_r	knee_angle_r_beta	ankle_angle_r	subtalar_angle_r	mtp_angle_r	hip_flexion_l	hip_adduction_l	hip_rotation_l	knee_angle_l	knee_angle_l_beta	ankle_angle_l	subtalar_angle_l	mtp_angle_l	lumbar_extension	lumbar_bending	lumbar_rotation	arm_flex_r	arm_add_r	arm_rot_r	elbow_flex_r	pro_sup_r	arm_flex_l	arm_add_l	arm_rot_l	elbow_flex_l	pro_sup_l
      0.00000000	     -1.78399812	     -0.62527430	      3.55922724	     -0.04867930	      1.26929110	     -0.07114729	     -1.36572521	      1.16432987	      0.70829026	      0.67393545	      0.01176239	     -0.09131924	    -10.22314962	     -6.80949486	     -2.30216358	     -0.63372120	      0.28096663	      1.93691938	      0.03380562	      5.97558687	     -4.18365558	     -6.80949486	     -1.87321853	      0.48244544	      1.38883325	      7.93293767	    -11.32251816	      9.43469189	     25.18619858	     79.76974553	      1.07310283	    -10.52472909	     10.79900062	     23.57630319	     79.82171356
      0.01666670	     -2.28627222	     -0.81844189	      2.93864882	     -0.04960415	      1.26718550	     -0.07114829	     -0.84648828	      1.39736786	      0.63119790	      0.43531695	      0.00759771	      1.19962883	     -9.84023871	     -7.35289934	     -2.17606470	     -0.68996027	      0.41976971	      1.05770020	      0.01846035	      5.79545236	     -4.99388208	     -7.35289934	     -1.03398524	      0.70070626	      2.14126411	      7.96408405	    -11.42748929	      9.87214229	     24.63035366	     93.27249298	      1.21145446	     -9.85250219	      9.46359955	     23.16523169	     93.60702406
      0.03333330	     -2.27944350	     -0.83142659	      3.02868608	     -0.05000532	      1.26768718	     -0.07113739	     -0.94528999	      1.57541358	      0.90169556	      0.39270468	      0.00685399	      1.10602756	    -10.53141076	     -7.35052772	     -2.27889767	     -0.61856045	      0.64618162	      0.83336989	      0.01454505	      5.24902104	     -5.52676854	     -7.35052772	     -1.06794091	      0.63889946	      2.39863394	      7.71767074	    -11.20523814	     10.04314552	     24.29653201	     90.42777389	      1.55531335	     -9.48201976	      9.63099455	     22.65946514	     90.85482427
      0.05000000	     -2.34876375	     -0.84917988	      3.43824805	     -0.05089320	      1.26732555	     -0.07199195	     -0.82041531	      1.60679714	     -0.35391123	      0.40789400	      0.00711909	      1.98761805	     -9.63208278	     -7.41805827	     -2.22666703	     -0.57693076	      0.74440495	      0.75009188	      0.01309157	      5.17953645	     -5.47745481	     -7.41805827	     -0.97465451	      0.62754770	      2.32150158	      7.42383828	    -11.02516545	      8.66321271	     24.56567309	     95.30943776	      2.22923824	     -9.46092842	     11.25909222	     21.72924005	     96.35157609
      0.06666670	     -2.29066210	     -0.76476350	      3.56317875	     -0.05151248	      1.27005311	     -0.07222988	     -0.81681952	      1.57696153	     -0.73072558	      0.43989259	      0.00767757	      2.29539186	     -9.76829785	     -7.42782307	     -2.29616255	     -0.45667740	      0.62754641	      0.78187281	      0.01364625	      5.14223746	     -5.48578424	     -7.42782307	     -1.08037755	      0.49464514	      2.24364866	      7.41900141	    -10.82593477	      8.77509688	     24.23122879	     93.86103649	      2.31906561	     -9.40519925	     11.60755586	     21.42642485	     94.97722716
      0.08333330	     -2.40916574	     -0.71100497	      3.59876164	     -0.05222324	      1.26743968	     -0.07240128	     -0.60001067	      1.54872702	     -1.20482996	      0.51321347	      0.00895726	      2.45317235	     -9.79810365	     -7.42981072	     -2.16636403	     -0.36888755	      0.51352585	      0.83138409	      0.01451039	      5.16371249	     -5.55587181	     -7.42981072	     -0.93026192	      0.42981564	      2.28558419	      7.36934473	    -10.68026288	      8.80775902	     23.76146686	     94.47879824	      2.43762014	     -9.42833601	     12.19061772	     21.06541753	     95.80089889
      0.10000000	     -2.54943508	     -0.66137963	      3.68560005	     -0.05246739	      1.26744350	     -0.07238093	     -0.39112820	      1.52403486	     -1.52799697	      0.58674135	      0.01024057	      2.33289566	    -10.21081521	     -7.43841562	     -2.00179666	     -0.30781557	      0.12830727	      0.90188851	      0.01574092	      5.31016202	     -5.17883855	     -7.43841562	     -0.75875699	      0.38175822	      2.32357134	      6.89875820	    -10.54022090	      8.41592342	     23.54540481	     94.62875370	      2.47690381	     -9.57055300	     13.32344808	     20.76474730	     96.41657595
      0.11666670	     -2.61574054	     -0.61388379	      3.76098742	     -0.05290032	      1.26754136	     -0.07245599	     -0.26101501	      1.51179522	     -1.94146809	      0.68377127	      0.01193406	      2.27892877	    -10.35609702	     -7.47969928	     -1.89435043	     -0.27307946	     -0.19372783	      0.95847314	      0.01672851	      5.27220645	     -5.06818475	     -7.47969928	     -0.69469920	      0.30410413	      2.46947901	      6.36863628	    -10.64475424	      9.40627961	     23.32894564	     92.27858506	      2.78195985	     -9.94673444	     16.27393851	     20.43914493	     94.23896573
      0.13333330	     -2.60454164	     -0.59050818	      3.81804852	     -0.04677567	      1.26802399	     -0.07579817	     -0.27597504	      1.50813146	     -2.04378539	      0.76987531	      0.01343686	      2.28301873	    -10.42462378	     -7.47972365	     -1.95978439	     -0.22430548	     -0.38202539	      0.96481813	      0.01683925	      5.25079537	     -5.11403689	     -7.47972365	     -0.82974679	      0.34791340	      2.27799512	      5.79343464	    -10.60791434	      9.41158371	     23.10295685	     92.29466737	      2.61010230	     -9.93710134	     16.26895103	     20.37717540	     94.25051446
      0.15000000	     -2.71239622	     -0.55618043	      3.96737232	     -0.04693392	      1.27059676	     -0.07585375	     -0.24513734	      1.50145905	     -2.27200044	      0.80127846	      0.01398495	      2.17191916	    -10.86226800	     -7.49294931	     -1.91150824	     -0.19334712	     -0.89375734	      0.94806530	      0.01654686	      5.17383245	     -4.51630803	     -7.49294931	     -0.47974624	      0.25444004	      2.43713244	      4.92439590	    -10.09626845	      5.82384063	     22.44780575	     96.57761169	      2.42050132	     -9.80633312	     14.93313607	     20.14321145	     97.31309708
      0.16666670	     -2.73797333	     -0.53346463	      4.07737894	     -0.04716856	      1.27023413	     -0.07569669	     -0.32832361	      1.51224203	     -2.38868546	      0.82141571	      0.01433641	      2.13869752	    -11.10267917	     -7.49826064	     -1.93132925	     -0.16276516	     -1.08606619	      0.92079941	      0.01607098	      5.12063602	     -4.36576448	     -7.49826064	     -0.35482118	      0.22794275	      2.42102988	      4.33684137	    -10.07160796	      5.52134900	     22.06798314	     96.74423915	      2.26480887	     -9.94195670	     15.46923411	     19.88630658	     97.21754681
      0.18333330	     -2.80855523	     -0.48230420	      4.18196802	     -0.04753817	      1.26754679	     -0.07577837	     -0.34772927	      1.48623386	     -2.49962952	      0.81354047	      0.01419896	      2.15684048	    -11.23753075	     -7.49950659	     -1.91132660	     -0.08907472	     -1.19573103	      0.86864146	      0.01516065	      5.04051462	     -4.28976573	     -7.49950659	     -0.17477640	      0.14398659	      2.43437794	      3.91346889	    -10.38549975	      8.10770043	     21.70926168	     92.53135722	      2.33253171	    -10.35102461	     18.64666284	     19.48859707	     93.53227125
      0.20000000	     -2.85515456	     -0.48594048	      4.29560458	     -0.04739571	      1.26977012	     -0.07569874	     -0.37461167	      1.52455110	     -2.54224405	      0.84355720	      0.01472285	      2.14383125	    -11.50900860	     -7.49984462	     -1.88629873	     -0.09282717	     -1.37697760	      0.85121097	      0.01485643	      5.07796099	     -4.04892903	     -7.49984462	     -0.09305653	      0.14645128	      2.43793206	      3.34143674	    -10.04614981	      4.82719442	     21.70948766	     96.69718040	      2.20971240	    -10.26935086	     16.41657529	     19.59697255	     97.12164381
